<?xml version="1.0" encoding="UTF-8" standalone="no"?>
<!DOCTYPE svg PUBLIC "-//W3C//DTD SVG 1.1//EN" "http://www.w3.org/Graphics/SVG/1.1/DTD/svg11.dtd">
<svg width="100%" height="100%" viewBox="0 0 1000 1000" version="1.1" xmlns="http://www.w3.org/2000/svg" xmlns:xlink="http://www.w3.org/1999/xlink" xml:space="preserve" xmlns:serif="http://www.serif.com/" style="fill-rule:evenodd;clip-rule:evenodd;stroke-linejoin:round;stroke-miterlimit:2;">
    <g transform="matrix(1,0,0,1.3565,-23.5485,-105.296)">
        <rect x="23.548" y="77.623" width="830" height="135.792" style="fill:rgb(33,40,48);"/>
    </g>
    <g transform="matrix(1,0,0,0.866896,0,0)">
        <rect x="0" y="0" width="830" height="115.354" style="fill:none;"/>
    </g>
    <g transform="matrix(0.682924,0,0,0.285073,-12.2088,-97.2523)">
        <path d="M828.729,713.86L828.73,713.86C833.781,713.86 837.881,704.037 837.881,691.936C837.881,679.836 833.781,670.012 828.73,670.012L828.729,670.012C823.678,670.012 819.577,679.836 819.577,691.936C819.577,704.037 823.678,713.86 828.729,713.86ZM279.62,713.86L279.621,713.86C284.672,713.86 288.772,704.037 288.772,691.936C288.772,679.836 284.672,670.012 279.621,670.012L279.62,670.012C274.569,670.012 270.468,679.836 270.468,691.936C270.468,704.037 274.569,713.86 279.62,713.86ZM389.44,713.86L389.441,713.86C394.493,713.86 398.593,704.037 398.593,691.936C398.593,679.836 394.493,670.012 389.441,670.012L389.44,670.012C384.389,670.012 380.289,679.836 380.289,691.936C380.289,704.037 384.389,713.86 389.44,713.86ZM416.897,713.86L416.898,713.86C421.949,713.86 426.05,704.037 426.05,691.936C426.05,679.836 421.949,670.012 416.898,670.012L416.897,670.012C411.846,670.012 407.745,679.836 407.745,691.936C407.745,704.037 411.846,713.86 416.897,713.86ZM444.353,713.86L444.354,713.86C449.405,713.86 453.505,704.037 453.505,691.936C453.505,679.836 449.405,670.012 444.354,670.012L444.353,670.012C439.302,670.012 435.201,679.836 435.201,691.936C435.201,704.037 439.302,713.86 444.353,713.86ZM471.809,713.86L471.81,713.86C476.861,713.86 480.961,704.037 480.961,691.936C480.961,679.836 476.861,670.012 471.81,670.012L471.809,670.012C466.758,670.012 462.657,679.836 462.657,691.936C462.657,704.037 466.758,713.86 471.809,713.86ZM609.087,713.86L609.088,713.86C614.139,713.86 618.239,704.037 618.239,691.936C618.239,679.836 614.139,670.012 609.088,670.012L609.087,670.012C604.036,670.012 599.935,679.836 599.935,691.936C599.935,704.037 604.036,713.86 609.087,713.86ZM499.264,713.86L499.265,713.86C504.316,713.86 508.417,704.037 508.417,691.936C508.417,679.836 504.316,670.012 499.265,670.012L499.264,670.012C494.213,670.012 490.112,679.836 490.112,691.936C490.112,704.037 494.213,713.86 499.264,713.86ZM526.719,713.86L526.72,713.86C531.771,713.86 535.872,704.037 535.872,691.936C535.872,679.836 531.771,670.012 526.72,670.012L526.719,670.012C521.668,670.012 517.568,679.836 517.568,691.936C517.568,704.037 521.668,713.86 526.719,713.86ZM554.175,713.86L554.176,713.86C559.227,713.86 563.328,704.037 563.328,691.936C563.328,679.836 559.227,670.012 554.176,670.012L554.175,670.012C549.124,670.012 545.023,679.836 545.023,691.936C545.023,704.037 549.124,713.86 554.175,713.86ZM252.165,713.86L252.166,713.86C257.217,713.86 261.318,704.037 261.318,691.936C261.318,679.836 257.217,670.012 252.166,670.012L252.165,670.012C247.114,670.012 243.013,679.836 243.013,691.936C243.013,704.037 247.114,713.86 252.165,713.86ZM581.631,713.86L581.632,713.86C586.683,713.86 590.784,704.037 590.784,691.936C590.784,679.836 586.683,670.012 581.632,670.012L581.631,670.012C576.58,670.012 572.479,679.836 572.479,691.936C572.479,704.037 576.58,713.86 581.631,713.86ZM307.075,713.86L307.076,713.86C312.127,713.86 316.228,704.037 316.228,691.936C316.228,679.836 312.127,670.012 307.076,670.012L307.075,670.012C302.024,670.012 297.923,679.836 297.923,691.936C297.923,704.037 302.024,713.86 307.075,713.86ZM334.53,713.86L334.531,713.86C339.582,713.86 343.683,704.037 343.683,691.936C343.683,679.836 339.582,670.012 334.531,670.012L334.53,670.012C329.479,670.012 325.378,679.836 325.378,691.936C325.378,704.037 329.479,713.86 334.53,713.86ZM361.985,713.86L361.986,713.86C367.037,713.86 371.137,704.037 371.137,691.936C371.137,679.836 367.037,670.012 361.986,670.012L361.985,670.012C356.934,670.012 352.833,679.836 352.833,691.936C352.833,704.037 356.934,713.86 361.985,713.86ZM636.542,713.86L636.542,713.86C641.594,713.86 645.694,704.037 645.694,691.936C645.694,679.836 641.594,670.012 636.542,670.012L636.542,670.012C631.491,670.012 627.39,679.836 627.39,691.936C627.39,704.037 631.491,713.86 636.542,713.86ZM663.997,713.86L663.998,713.86C669.049,713.86 673.15,704.037 673.15,691.936C673.15,679.836 669.049,670.012 663.998,670.012L663.997,670.012C658.946,670.012 654.846,679.836 654.846,691.936C654.846,704.037 658.946,713.86 663.997,713.86ZM691.453,713.86L691.454,713.86C696.505,713.86 700.606,704.037 700.606,691.936C700.606,679.836 696.505,670.012 691.454,670.012L691.453,670.012C686.402,670.012 682.301,679.836 682.301,691.936C682.301,704.037 686.402,713.86 691.453,713.86ZM718.908,713.86L718.909,713.86C723.96,713.86 728.06,704.037 728.06,691.936C728.06,679.836 723.96,670.012 718.909,670.012L718.908,670.012C713.857,670.012 709.756,679.836 709.756,691.936C709.756,704.037 713.857,713.86 718.908,713.86ZM746.363,713.86L746.364,713.86C751.415,713.86 755.516,704.037 755.516,691.936C755.516,679.836 751.415,670.012 746.364,670.012L746.363,670.012C741.312,670.012 737.211,679.836 737.211,691.936C737.211,704.037 741.312,713.86 746.363,713.86ZM773.818,713.86L773.819,713.86C778.87,713.86 782.971,704.037 782.971,691.936C782.971,679.836 778.87,670.012 773.819,670.012L773.818,670.012C768.767,670.012 764.667,679.836 764.667,691.936C764.667,704.037 768.767,713.86 773.818,713.86ZM801.273,713.86L801.274,713.86C806.325,713.86 810.426,704.037 810.426,691.936C810.426,679.836 806.325,670.012 801.274,670.012L801.273,670.012C796.222,670.012 792.122,679.836 792.122,691.936C792.122,704.037 796.222,713.86 801.273,713.86ZM856.185,713.86L856.185,713.86C861.236,713.86 865.337,704.037 865.337,691.936C865.337,679.836 861.236,670.012 856.185,670.012L856.185,670.012C851.134,670.012 847.033,679.836 847.033,691.936C847.033,704.037 851.134,713.86 856.185,713.86ZM883.64,713.86L883.64,713.86C888.691,713.86 892.792,704.037 892.792,691.936C892.792,679.836 888.691,670.012 883.64,670.012L883.64,670.012C878.589,670.012 874.488,679.836 874.488,691.936C874.488,704.037 878.589,713.86 883.64,713.86ZM59.976,713.86L59.976,713.86C65.027,713.86 69.128,704.037 69.128,691.936C69.128,679.836 65.027,670.012 59.976,670.012L59.976,670.012C54.925,670.012 50.824,679.836 50.824,691.936C50.824,704.037 54.925,713.86 59.976,713.86ZM87.431,713.86L87.432,713.86C92.483,713.86 96.583,704.037 96.583,691.936C96.583,679.836 92.483,670.012 87.432,670.012L87.431,670.012C82.38,670.012 78.279,679.836 78.279,691.936C78.279,704.037 82.38,713.86 87.431,713.86ZM114.887,713.86L114.888,713.86C119.939,713.86 124.04,704.037 124.04,691.936C124.04,679.836 119.939,670.012 114.888,670.012L114.887,670.012C109.836,670.012 105.735,679.836 105.735,691.936C105.735,704.037 109.836,713.86 114.887,713.86ZM169.799,713.86L169.8,713.86C174.851,713.86 178.952,704.037 178.952,691.936C178.952,679.836 174.851,670.012 169.8,670.012L169.799,670.012C164.748,670.012 160.647,679.836 160.647,691.936C160.647,704.037 164.748,713.86 169.799,713.86ZM197.255,713.86L197.256,713.86C202.307,713.86 206.407,704.037 206.407,691.936C206.407,679.836 202.307,670.012 197.256,670.012L197.255,670.012C192.204,670.012 188.103,679.836 188.103,691.936C188.103,704.037 192.204,713.86 197.255,713.86ZM224.71,713.86L224.711,713.86C229.762,713.86 233.863,704.037 233.863,691.936C233.863,679.836 229.762,670.012 224.711,670.012L224.71,670.012C219.659,670.012 215.558,679.836 215.558,691.936C215.558,704.037 219.659,713.86 224.71,713.86ZM142.343,713.86L142.344,713.86C147.395,713.86 151.496,704.037 151.496,691.936C151.496,679.836 147.395,670.012 142.344,670.012L142.343,670.012C137.292,670.012 133.191,679.836 133.191,691.936C133.191,704.037 137.292,713.86 142.343,713.86ZM27.156,683.829C24.863,678.154 23.368,684.63 23.368,691.936C23.368,704.037 27.469,713.86 32.52,713.86L32.52,713.86C37.571,713.86 41.672,704.037 41.672,691.936C41.672,679.836 37.571,670.012 32.52,670.012C27.956,670.012 26.806,676.149 27.156,683.829ZM911.095,713.86L911.096,713.86C916.147,713.86 920.247,704.037 920.247,691.936C920.247,679.836 916.147,670.012 911.096,670.012L911.095,670.012C906.044,670.012 901.943,679.836 901.943,691.936C901.943,704.037 906.044,713.86 911.095,713.86ZM938.551,713.86L938.551,713.86C943.602,713.86 947.703,704.037 947.703,691.936C947.703,679.836 943.602,670.012 938.551,670.012L938.551,670.012C933.5,670.012 929.399,679.836 929.399,691.936C929.399,704.037 933.5,713.86 938.551,713.86ZM966.006,713.86L966.006,713.86C971.057,713.86 975.158,704.037 975.158,691.936C975.158,679.836 971.057,670.012 966.006,670.012L966.006,670.012C960.955,670.012 956.854,679.836 956.854,691.936C956.854,704.037 960.955,713.86 966.006,713.86ZM1075.83,713.86L1075.83,713.86C1080.88,713.86 1084.98,704.037 1084.98,691.936C1084.98,679.836 1080.88,670.012 1075.83,670.012L1075.83,670.012C1070.78,670.012 1066.68,679.836 1066.68,691.936C1066.68,704.037 1070.78,713.86 1075.83,713.86ZM1103.28,713.86L1103.28,713.86C1108.33,713.86 1112.43,704.037 1112.43,691.936C1112.43,679.836 1108.33,670.012 1103.28,670.012L1103.28,670.012C1098.23,670.012 1094.13,679.836 1094.13,691.936C1094.13,704.037 1098.23,713.86 1103.28,713.86ZM1130.74,713.86L1130.74,713.86C1135.79,713.86 1139.89,704.037 1139.89,691.936C1139.89,679.836 1135.79,670.012 1130.74,670.012L1130.74,670.012C1125.69,670.012 1121.59,679.836 1121.59,691.936C1121.59,704.037 1125.69,713.86 1130.74,713.86ZM993.461,713.86L993.462,713.86C998.513,713.86 1002.61,704.037 1002.61,691.936C1002.61,679.836 998.513,670.012 993.462,670.012L993.461,670.012C988.41,670.012 984.31,679.836 984.31,691.936C984.31,704.037 988.41,713.86 993.461,713.86ZM1020.92,713.86L1020.92,713.86C1025.97,713.86 1030.07,704.037 1030.07,691.936C1030.07,679.836 1025.97,670.012 1020.92,670.012L1020.92,670.012C1015.87,670.012 1011.76,679.836 1011.76,691.936C1011.76,704.037 1015.87,713.86 1020.92,713.86ZM1048.37,713.86L1048.37,713.86C1053.42,713.86 1057.52,704.037 1057.52,691.936C1057.52,679.836 1053.42,670.012 1048.37,670.012L1048.37,670.012C1043.32,670.012 1039.22,679.836 1039.22,691.936C1039.22,704.037 1043.32,713.86 1048.37,713.86ZM1158.19,713.86L1158.19,713.86C1163.25,713.86 1167.35,704.037 1167.35,691.936C1167.35,679.836 1163.25,670.012 1158.19,670.012L1158.19,670.012C1153.14,670.012 1149.04,679.836 1149.04,691.936C1149.04,704.037 1153.14,713.86 1158.19,713.86ZM1185.65,713.86L1185.65,713.86C1190.7,713.86 1194.8,704.037 1194.8,691.936C1194.8,679.836 1190.7,670.012 1185.65,670.012L1185.65,670.012C1180.6,670.012 1176.5,679.836 1176.5,691.936C1176.5,704.037 1180.6,713.86 1185.65,713.86Z" style="fill:rgb(0,109,255);"/>
    </g>
    <g transform="matrix(0.801527,0,0,0.801527,-1.55387,-66.3956)">
        <g transform="matrix(133.333,0,0,133.333,13.3482,181.313)">
            <path d="M0.584,-0L0.446,-0L0.43,-0.084L0.413,-0.144L0.287,-0.147L0.176,-0.144L0.159,-0.091L0.142,-0L0.008,-0L0.226,-0.644L0.387,-0.644L0.584,-0ZM0.384,-0.249L0.308,-0.517L0.299,-0.517L0.211,-0.249L0.297,-0.247L0.384,-0.249Z" style="fill:rgb(209,215,224);fill-rule:nonzero;"/>
        </g>
        <g transform="matrix(133.333,0,0,133.333,86.5482,181.313)">
            <path d="M0.489,-0.633L0.481,-0.532L0.36,-0.538L0.32,-0.538L0.315,-0.204L0.321,-0L0.185,-0L0.192,-0.192L0.187,-0.538L0.147,-0.538L0.024,-0.532L0.015,-0.543L0.024,-0.644L0.481,-0.644L0.489,-0.633Z" style="fill:rgb(209,215,224);fill-rule:nonzero;"/>
        </g>
        <g transform="matrix(133.333,0,0,133.333,153.081,181.313)">
            <path d="M0.416,-0.256C0.468,-0.173 0.52,-0.099 0.571,-0.032L0.569,-0.017C0.526,-0.002 0.481,0.007 0.436,0.01L0.422,-0.001C0.374,-0.084 0.335,-0.156 0.305,-0.217L0.208,-0.217L0.208,-0.204L0.214,-0L0.078,-0L0.085,-0.192L0.078,-0.644L0.325,-0.645C0.392,-0.645 0.444,-0.628 0.481,-0.596C0.518,-0.563 0.536,-0.515 0.536,-0.454C0.536,-0.413 0.526,-0.375 0.504,-0.341C0.484,-0.306 0.454,-0.278 0.416,-0.256ZM0.21,-0.322L0.309,-0.318C0.366,-0.337 0.394,-0.378 0.394,-0.441C0.394,-0.475 0.385,-0.5 0.367,-0.518C0.348,-0.535 0.32,-0.544 0.282,-0.545L0.214,-0.541L0.21,-0.322Z" style="fill:rgb(209,215,224);fill-rule:nonzero;"/>
        </g>
        <g transform="matrix(133.333,0,0,133.333,231.748,181.313)">
            <path d="M0.325,-0.645C0.392,-0.645 0.444,-0.628 0.481,-0.594C0.517,-0.56 0.535,-0.511 0.535,-0.448C0.535,-0.399 0.524,-0.357 0.503,-0.321C0.482,-0.284 0.451,-0.256 0.411,-0.236C0.372,-0.216 0.325,-0.206 0.272,-0.206L0.208,-0.206L0.208,-0.204L0.214,-0L0.078,-0L0.085,-0.192L0.078,-0.644L0.325,-0.645ZM0.302,-0.305C0.363,-0.322 0.394,-0.366 0.394,-0.436C0.394,-0.472 0.385,-0.499 0.367,-0.517C0.348,-0.534 0.32,-0.544 0.282,-0.545L0.214,-0.541L0.21,-0.309L0.302,-0.305Z" style="fill:rgb(209,215,224);fill-rule:nonzero;"/>
        </g>
    </g>
    <g transform="matrix(1,0,0,0.866896,0,210.234)">
        <rect x="0" y="0" width="830" height="115.354" style="fill:none;"/>
    </g>
    <g transform="matrix(0.682924,0,0,0.285073,-12.2088,112.981)">
        <path d="M718.908,713.86L718.909,713.86C723.96,713.86 728.06,704.037 728.06,691.936C728.06,679.836 723.96,670.012 718.909,670.012L718.908,670.012C713.857,670.012 709.756,679.836 709.756,691.936C709.756,704.037 713.857,713.86 718.908,713.86ZM828.729,713.86L828.73,713.86C833.781,713.86 837.881,704.037 837.881,691.936C837.881,679.836 833.781,670.012 828.73,670.012L828.729,670.012C823.678,670.012 819.577,679.836 819.577,691.936C819.577,704.037 823.678,713.86 828.729,713.86ZM801.273,713.86L801.274,713.86C806.325,713.86 810.426,704.037 810.426,691.936C810.426,679.836 806.325,670.012 801.274,670.012L801.273,670.012C796.222,670.012 792.122,679.836 792.122,691.936C792.122,704.037 796.222,713.86 801.273,713.86ZM773.818,713.86L773.819,713.86C778.87,713.86 782.971,704.037 782.971,691.936C782.971,679.836 778.87,670.012 773.819,670.012L773.818,670.012C768.767,670.012 764.667,679.836 764.667,691.936C764.667,704.037 768.767,713.86 773.818,713.86ZM746.363,713.86L746.364,713.86C751.415,713.86 755.516,704.037 755.516,691.936C755.516,679.836 751.415,670.012 746.364,670.012L746.363,670.012C741.312,670.012 737.211,679.836 737.211,691.936C737.211,704.037 741.312,713.86 746.363,713.86ZM691.453,713.86L691.454,713.86C696.505,713.86 700.606,704.037 700.606,691.936C700.606,679.836 696.505,670.012 691.454,670.012L691.453,670.012C686.402,670.012 682.301,679.836 682.301,691.936C682.301,704.037 686.402,713.86 691.453,713.86ZM856.185,713.86L856.185,713.86C861.236,713.86 865.337,704.037 865.337,691.936C865.337,679.836 861.236,670.012 856.185,670.012L856.185,670.012C851.134,670.012 847.033,679.836 847.033,691.936C847.033,704.037 851.134,713.86 856.185,713.86ZM1075.83,713.86L1075.83,713.86C1080.88,713.86 1084.98,704.037 1084.98,691.936C1084.98,679.836 1080.88,670.012 1075.83,670.012L1075.83,670.012C1070.78,670.012 1066.68,679.836 1066.68,691.936C1066.68,704.037 1070.78,713.86 1075.83,713.86ZM938.551,713.86L938.551,713.86C943.602,713.86 947.703,704.037 947.703,691.936C947.703,679.836 943.602,670.012 938.551,670.012L938.551,670.012C933.5,670.012 929.399,679.836 929.399,691.936C929.399,704.037 933.5,713.86 938.551,713.86ZM911.095,713.86L911.096,713.86C916.147,713.86 920.247,704.037 920.247,691.936C920.247,679.836 916.147,670.012 911.096,670.012L911.095,670.012C906.044,670.012 901.943,679.836 901.943,691.936C901.943,704.037 906.044,713.86 911.095,713.86ZM883.64,713.86L883.64,713.86C888.691,713.86 892.792,704.037 892.792,691.936C892.792,679.836 888.691,670.012 883.64,670.012L883.64,670.012C878.589,670.012 874.488,679.836 874.488,691.936C874.488,704.037 878.589,713.86 883.64,713.86ZM663.997,713.86L663.998,713.86C669.049,713.86 673.15,704.037 673.15,691.936C673.15,679.836 669.049,670.012 663.998,670.012L663.997,670.012C658.946,670.012 654.846,679.836 654.846,691.936C654.846,704.037 658.946,713.86 663.997,713.86ZM279.62,713.86L279.621,713.86C284.672,713.86 288.772,704.037 288.772,691.936C288.772,679.836 284.672,670.012 279.621,670.012L279.62,670.012C274.569,670.012 270.468,679.836 270.468,691.936C270.468,704.037 274.569,713.86 279.62,713.86ZM1130.74,713.86L1130.74,713.86C1135.79,713.86 1139.89,704.037 1139.89,691.936C1139.89,679.836 1135.79,670.012 1130.74,670.012L1130.74,670.012C1125.69,670.012 1121.59,679.836 1121.59,691.936C1121.59,704.037 1125.69,713.86 1130.74,713.86ZM87.431,713.86L87.432,713.86C92.483,713.86 96.583,704.037 96.583,691.936C96.583,679.836 92.483,670.012 87.432,670.012L87.431,670.012C82.38,670.012 78.279,679.836 78.279,691.936C78.279,704.037 82.38,713.86 87.431,713.86ZM114.887,713.86L114.888,713.86C119.939,713.86 124.04,704.037 124.04,691.936C124.04,679.836 119.939,670.012 114.888,670.012L114.887,670.012C109.836,670.012 105.735,679.836 105.735,691.936C105.735,704.037 109.836,713.86 114.887,713.86ZM609.087,713.86L609.088,713.86C614.139,713.86 618.239,704.037 618.239,691.936C618.239,679.836 614.139,670.012 609.088,670.012L609.087,670.012C604.036,670.012 599.935,679.836 599.935,691.936C599.935,704.037 604.036,713.86 609.087,713.86ZM197.255,713.86L197.256,713.86C202.307,713.86 206.407,704.037 206.407,691.936C206.407,679.836 202.307,670.012 197.256,670.012L197.255,670.012C192.204,670.012 188.103,679.836 188.103,691.936C188.103,704.037 192.204,713.86 197.255,713.86ZM252.165,713.86L252.166,713.86C257.217,713.86 261.318,704.037 261.318,691.936C261.318,679.836 257.217,670.012 252.166,670.012L252.165,670.012C247.114,670.012 243.013,679.836 243.013,691.936C243.013,704.037 247.114,713.86 252.165,713.86ZM307.075,713.86L307.076,713.86C312.127,713.86 316.228,704.037 316.228,691.936C316.228,679.836 312.127,670.012 307.076,670.012L307.075,670.012C302.024,670.012 297.923,679.836 297.923,691.936C297.923,704.037 302.024,713.86 307.075,713.86ZM554.175,713.86L554.176,713.86C559.227,713.86 563.328,704.037 563.328,691.936C563.328,679.836 559.227,670.012 554.176,670.012L554.175,670.012C549.124,670.012 545.023,679.836 545.023,691.936C545.023,704.037 549.124,713.86 554.175,713.86ZM581.631,713.86L581.632,713.86C586.683,713.86 590.784,704.037 590.784,691.936C590.784,679.836 586.683,670.012 581.632,670.012L581.631,670.012C576.58,670.012 572.479,679.836 572.479,691.936C572.479,704.037 576.58,713.86 581.631,713.86ZM1048.37,713.86L1048.37,713.86C1053.42,713.86 1057.52,704.037 1057.52,691.936C1057.52,679.836 1053.42,670.012 1048.37,670.012L1048.37,670.012C1043.32,670.012 1039.22,679.836 1039.22,691.936C1039.22,704.037 1043.32,713.86 1048.37,713.86ZM636.542,713.86L636.542,713.86C641.594,713.86 645.694,704.037 645.694,691.936C645.694,679.836 641.594,670.012 636.542,670.012L636.542,670.012C631.491,670.012 627.39,679.836 627.39,691.936C627.39,704.037 631.491,713.86 636.542,713.86ZM993.461,713.86L993.462,713.86C998.513,713.86 1002.61,704.037 1002.61,691.936C1002.61,679.836 998.513,670.012 993.462,670.012L993.461,670.012C988.41,670.012 984.31,679.836 984.31,691.936C984.31,704.037 988.41,713.86 993.461,713.86ZM1020.92,713.86L1020.92,713.86C1025.97,713.86 1030.07,704.037 1030.07,691.936C1030.07,679.836 1025.97,670.012 1020.92,670.012L1020.92,670.012C1015.87,670.012 1011.76,679.836 1011.76,691.936C1011.76,704.037 1015.87,713.86 1020.92,713.86ZM1103.28,713.86L1103.28,713.86C1108.33,713.86 1112.43,704.037 1112.43,691.936C1112.43,679.836 1108.33,670.012 1103.28,670.012L1103.28,670.012C1098.23,670.012 1094.13,679.836 1094.13,691.936C1094.13,704.037 1098.23,713.86 1103.28,713.86ZM32.05,713.832L32.52,713.86C37.571,713.86 41.672,704.037 41.672,691.936C41.672,679.836 37.571,670.012 32.52,670.012C27.956,670.012 26.806,676.149 27.156,683.829C24.863,678.154 23.368,684.63 23.368,691.936C23.368,703.658 27.216,713.243 32.05,713.832ZM416.897,713.86L416.898,713.86C421.949,713.86 426.05,704.037 426.05,691.936C426.05,679.836 421.949,670.012 416.898,670.012L416.897,670.012C411.846,670.012 407.745,679.836 407.745,691.936C407.745,704.037 411.846,713.86 416.897,713.86ZM389.44,713.86L389.441,713.86C394.493,713.86 398.593,704.037 398.593,691.936C398.593,679.836 394.493,670.012 389.441,670.012L389.44,670.012C384.389,670.012 380.289,679.836 380.289,691.936C380.289,704.037 384.389,713.86 389.44,713.86ZM361.985,713.86L361.986,713.86C367.037,713.86 371.137,704.037 371.137,691.936C371.137,679.836 367.037,670.012 361.986,670.012L361.985,670.012C356.934,670.012 352.833,679.836 352.833,691.936C352.833,704.037 356.934,713.86 361.985,713.86ZM334.53,713.86L334.531,713.86C339.582,713.86 343.683,704.037 343.683,691.936C343.683,679.836 339.582,670.012 334.531,670.012L334.53,670.012C329.479,670.012 325.378,679.836 325.378,691.936C325.378,704.037 329.479,713.86 334.53,713.86ZM142.343,713.86L142.344,713.86C147.395,713.86 151.496,704.037 151.496,691.936C151.496,679.836 147.395,670.012 142.344,670.012L142.343,670.012C137.292,670.012 133.191,679.836 133.191,691.936C133.191,704.037 137.292,713.86 142.343,713.86ZM224.71,713.86L224.711,713.86C229.762,713.86 233.863,704.037 233.863,691.936C233.863,679.836 229.762,670.012 224.711,670.012L224.71,670.012C219.659,670.012 215.558,679.836 215.558,691.936C215.558,704.037 219.659,713.86 224.71,713.86ZM169.799,713.86L169.8,713.86C174.851,713.86 178.952,704.037 178.952,691.936C178.952,679.836 174.851,670.012 169.8,670.012L169.799,670.012C164.748,670.012 160.647,679.836 160.647,691.936C160.647,704.037 164.748,713.86 169.799,713.86ZM966.006,713.86L966.006,713.86C971.057,713.86 975.158,704.037 975.158,691.936C975.158,679.836 971.057,670.012 966.006,670.012L966.006,670.012C960.955,670.012 956.854,679.836 956.854,691.936C956.854,704.037 960.955,713.86 966.006,713.86ZM526.719,713.86L526.72,713.86C531.771,713.86 535.872,704.037 535.872,691.936C535.872,679.836 531.771,670.012 526.72,670.012L526.719,670.012C521.668,670.012 517.568,679.836 517.568,691.936C517.568,704.037 521.668,713.86 526.719,713.86ZM499.264,713.86L499.265,713.86C504.316,713.86 508.417,704.037 508.417,691.936C508.417,679.836 504.316,670.012 499.265,670.012L499.264,670.012C494.213,670.012 490.112,679.836 490.112,691.936C490.112,704.037 494.213,713.86 499.264,713.86ZM59.976,713.86L59.976,713.86C65.027,713.86 69.128,704.037 69.128,691.936C69.128,679.836 65.027,670.012 59.976,670.012L59.976,670.012C54.925,670.012 50.824,679.836 50.824,691.936C50.824,704.037 54.925,713.86 59.976,713.86ZM444.353,713.86L444.354,713.86C449.405,713.86 453.505,704.037 453.505,691.936C453.505,679.836 449.405,670.012 444.354,670.012L444.353,670.012C439.302,670.012 435.201,679.836 435.201,691.936C435.201,704.037 439.302,713.86 444.353,713.86ZM471.809,713.86L471.81,713.86C476.861,713.86 480.961,704.037 480.961,691.936C480.961,679.836 476.861,670.012 471.81,670.012L471.809,670.012C466.758,670.012 462.657,679.836 462.657,691.936C462.657,704.037 466.758,713.86 471.809,713.86ZM1158.19,713.86L1158.19,713.86C1163.25,713.86 1167.35,704.037 1167.35,691.936C1167.35,679.836 1163.25,670.012 1158.19,670.012L1158.19,670.012C1153.14,670.012 1149.04,679.836 1149.04,691.936C1149.04,704.037 1153.14,713.86 1158.19,713.86ZM1185.65,713.86L1185.65,713.86C1190.7,713.86 1194.8,704.037 1194.8,691.936C1194.8,679.836 1190.7,670.012 1185.65,670.012L1185.65,670.012C1180.6,670.012 1176.5,679.836 1176.5,691.936C1176.5,704.037 1180.6,713.86 1185.65,713.86Z" style="fill:rgb(0,109,255);"/>
    </g>
    <g transform="matrix(0.801527,0,0,0.801527,-1.55387,143.838)">
        <g transform="matrix(133.333,0,0,133.333,13.3482,181.313)">
            <path d="M0.584,-0L0.446,-0L0.43,-0.084L0.413,-0.144L0.287,-0.147L0.176,-0.144L0.159,-0.091L0.142,-0L0.008,-0L0.226,-0.644L0.387,-0.644L0.584,-0ZM0.384,-0.249L0.308,-0.517L0.299,-0.517L0.211,-0.249L0.297,-0.247L0.384,-0.249Z" style="fill:rgb(31,35,40);fill-rule:nonzero;"/>
        </g>
        <g transform="matrix(133.333,0,0,133.333,86.5482,181.313)">
            <path d="M0.489,-0.633L0.481,-0.532L0.36,-0.538L0.32,-0.538L0.315,-0.204L0.321,-0L0.185,-0L0.192,-0.192L0.187,-0.538L0.147,-0.538L0.024,-0.532L0.015,-0.543L0.024,-0.644L0.481,-0.644L0.489,-0.633Z" style="fill:rgb(31,35,40);fill-rule:nonzero;"/>
        </g>
        <g transform="matrix(133.333,0,0,133.333,153.081,181.313)">
            <path d="M0.416,-0.256C0.468,-0.173 0.52,-0.099 0.571,-0.032L0.569,-0.017C0.526,-0.002 0.481,0.007 0.436,0.01L0.422,-0.001C0.374,-0.084 0.335,-0.156 0.305,-0.217L0.208,-0.217L0.208,-0.204L0.214,-0L0.078,-0L0.085,-0.192L0.078,-0.644L0.325,-0.645C0.392,-0.645 0.444,-0.628 0.481,-0.596C0.518,-0.563 0.536,-0.515 0.536,-0.454C0.536,-0.413 0.526,-0.375 0.504,-0.341C0.484,-0.306 0.454,-0.278 0.416,-0.256ZM0.21,-0.322L0.309,-0.318C0.366,-0.337 0.394,-0.378 0.394,-0.441C0.394,-0.475 0.385,-0.5 0.367,-0.518C0.348,-0.535 0.32,-0.544 0.282,-0.545L0.214,-0.541L0.21,-0.322Z" style="fill:rgb(31,35,40);fill-rule:nonzero;"/>
        </g>
        <g transform="matrix(133.333,0,0,133.333,231.748,181.313)">
            <path d="M0.325,-0.645C0.392,-0.645 0.444,-0.628 0.481,-0.594C0.517,-0.56 0.535,-0.511 0.535,-0.448C0.535,-0.399 0.524,-0.357 0.503,-0.321C0.482,-0.284 0.451,-0.256 0.411,-0.236C0.372,-0.216 0.325,-0.206 0.272,-0.206L0.208,-0.206L0.208,-0.204L0.214,-0L0.078,-0L0.085,-0.192L0.078,-0.644L0.325,-0.645ZM0.302,-0.305C0.363,-0.322 0.394,-0.366 0.394,-0.436C0.394,-0.472 0.385,-0.499 0.367,-0.517C0.348,-0.534 0.32,-0.544 0.282,-0.545L0.214,-0.541L0.21,-0.309L0.302,-0.305Z" style="fill:rgb(31,35,40);fill-rule:nonzero;"/>
        </g>
    </g>
</svg>
